<?xml version="1.0" encoding="UTF-8" standalone="no"?>
<!-- Created with Inkscape (http://www.inkscape.org/) -->

<svg
   width="48mm"
   height="48mm"
   viewBox="0 0 48 48"
   version="1.1"
   id="svg5"
   xml:space="preserve"
   xmlns="http://www.w3.org/2000/svg"
   xmlns:svg="http://www.w3.org/2000/svg"><defs
     id="defs2" /><path
     style="fill:#000000;stroke-width:0.52404"
     d="m 20.59861,42.996133 c -2.431725,-2.457372 -2.968713,-3.277156 -2.472003,-3.773868 0.496712,-0.496711 1.085821,-0.193907 2.711945,1.393958 l 2.077379,2.028513 0.149022,-5.984234 c 0.122103,-4.903733 0.290914,-5.984232 0.93507,-5.984232 0.644129,0 0.812937,1.080499 0.935061,5.984232 l 0.149021,5.984234 2.07738,-2.028513 c 1.626124,-1.587866 2.215233,-1.890671 2.711944,-1.393958 0.496712,0.49671 -0.0401,1.316496 -2.472003,3.773868 -1.708612,1.726625 -3.239235,3.139317 -3.401385,3.139317 -0.162124,0 -1.692783,-1.412692 -3.401395,-3.139317 z M 4.866988,27.264398 1.75,24.114547 5.003925,20.860629 C 7.566553,18.298 8.39383,17.742702 8.897948,18.246822 9.402056,18.75094 9.107132,19.328268 7.509547,20.964318 l -2.028511,2.077385 5.984228,0.149005 c 4.903738,0.122089 5.984237,0.290932 5.984237,0.935063 0,0.644129 -1.080499,0.812965 -5.984237,0.935065 l -5.984228,0.149004 1.983082,2.030863 c 1.722811,1.764315 2.12173,3.17355 0.898357,3.17355 -0.208203,0 -1.781143,-1.417433 -3.495487,-3.149855 z m 34.038921,2.578508 c -0.194211,-0.314239 0.539278,-1.485231 1.629974,-2.602205 l 1.983082,-2.030865 -5.984228,-0.149004 C 31.630999,24.938742 30.5505,24.7699 30.5505,24.125767 c 0,-0.644127 1.080499,-0.812963 5.984237,-0.935062 l 5.984228,-0.149002 -2.028511,-2.077385 c -1.597557,-1.63605 -1.892518,-2.213376 -1.388401,-2.717496 0.504109,-0.504117 1.331395,0.05116 3.894023,2.613807 L 46.25,24.114547 43.133013,27.264398 c -3.247703,3.281952 -3.643235,3.523225 -4.227104,2.578508 z M 23.312195,17.498848 C 23.114046,17.300695 22.951922,14.536016 22.951922,11.355117 V 5.5716646 l -2.095384,2.046083 c -1.650215,1.6113964 -2.231365,1.9100916 -2.735483,1.405971 -0.504108,-0.504118 0.05259,-1.3325897 2.619421,-3.89964 l 3.259529,-3.2595286 3.25952,3.2595286 c 2.567058,2.5670503 3.123547,3.3955194 2.619422,3.89964 -0.504109,0.5041167 -1.081445,0.2091563 -2.717498,-1.3884015 L 25.08407,5.6068036 24.935048,11.548338 c -0.13797,5.501788 -0.552327,7.021054 -1.622871,5.95051 z"
     id="path308" /></svg>
