<?xml version="1.0" encoding="UTF-8" standalone="no"?>
<!-- Created with Inkscape (http://www.inkscape.org/) -->

<svg
   width="48mm"
   height="48mm"
   viewBox="0 0 48 48"
   version="1.1"
   id="svg5"
   xml:space="preserve"
   sodipodi:docname="select.svg"
   inkscape:version="1.3.2 (091e20e, 2023-11-25)"
   xmlns:inkscape="http://www.inkscape.org/namespaces/inkscape"
   xmlns:sodipodi="http://sodipodi.sourceforge.net/DTD/sodipodi-0.dtd"
   xmlns="http://www.w3.org/2000/svg"
   xmlns:svg="http://www.w3.org/2000/svg"><sodipodi:namedview
     id="namedview1"
     pagecolor="#ffffff"
     bordercolor="#000000"
     borderopacity="0.25"
     inkscape:showpageshadow="2"
     inkscape:pageopacity="0.0"
     inkscape:pagecheckerboard="0"
     inkscape:deskcolor="#d1d1d1"
     inkscape:document-units="mm"
     showgrid="false"
     inkscape:zoom="4.7184028"
     inkscape:cx="90.708661"
     inkscape:cy="90.602693"
     inkscape:window-width="1920"
     inkscape:window-height="1080"
     inkscape:window-x="1920"
     inkscape:window-y="0"
     inkscape:window-maximized="0"
     inkscape:current-layer="svg5" /><defs
     id="defs2" /><path
     style="color:#000000;fill:currentColor;stroke-linecap:round;stroke-linejoin:round;-inkscape-stroke:none"
     d="m 41.433594,17.300781 a 1.250005,1.250005 0 0 0 -1.25,1.25 v 18.164063 c 0,3.571422 -2.8353,7.226562 -7.226563,7.226562 h -9.820312 c -0.826496,0 -1.611689,-0.341556 -2.177735,-0.945312 L 8.3671875,29.564453 C 7.6381624,28.7868 7.618473,27.6126 8.3203125,26.810547 9.1002268,25.919155 10.421663,25.85895 11.279297,26.675781 l 3.863281,3.677735 a 1.250005,1.250005 0 0 0 1.767578,-0.04297 1.250005,1.250005 0 0 0 -0.04297,-1.767578 L 13.003906,24.865234 C 11.141331,23.091272 8.1337635,23.228965 6.4394531,25.164062 4.9054028,26.917155 4.9497318,29.57588 6.5429687,31.275391 L 19.134766,44.705078 c 1.036419,1.105467 2.485633,1.736328 4.001953,1.736328 h 9.820312 c 5.780156,0 9.726563,-4.821803 9.726563,-9.726562 V 18.550781 a 1.250005,1.250005 0 0 0 -1.25,-1.25 z"
     id="path1" /><path
     style="color:#000000;fill:currentColor;stroke-linecap:round;stroke-linejoin:round;-inkscape-stroke:none"
     d="m 38.253906,13.667969 c -2.224208,0 -4.427734,1.914165 -4.427734,4.882812 v 1.210938 a 1.250005,1.250005 0 0 0 1.25,1.25 1.250005,1.250005 0 0 0 1.25,-1.25 v -1.210938 c 0,-1.874896 0.973374,-2.382812 1.927734,-2.382812 0.95436,0 1.929688,0.507916 1.929688,2.382812 a 1.250005,1.250005 0 0 0 1.25,1.25 1.250005,1.250005 0 0 0 1.25,-1.25 c 0,-2.968647 -2.20548,-4.882812 -4.429688,-4.882812 z"
     id="path2" /><path
     style="color:#000000;fill:currentColor;stroke-linecap:round;stroke-linejoin:round;-inkscape-stroke:none"
     d="m 31.898437,11.246094 c -2.224208,0 -4.429687,1.914165 -4.429687,4.882812 v 3.632813 a 1.250005,1.250005 0 0 0 1.25,1.25 1.250005,1.250005 0 0 0 1.25,-1.25 v -3.632813 c 0,-1.874896 0.975327,-2.382812 1.929687,-2.382812 0.954361,0 1.927735,0.507916 1.927735,2.382812 v 2.421875 1.210938 a 1.250005,1.250005 0 0 0 1.25,1.25 1.250005,1.250005 0 0 0 1.25,-1.25 v -1.210938 -2.421875 c 0,-2.968647 -2.203526,-4.882812 -4.427735,-4.882812 z"
     id="path3" /><path
     style="color:#000000;fill:currentColor;stroke-linecap:round;stroke-linejoin:round;-inkscape-stroke:none"
     d="m 25.541016,9.5820313 c -2.224206,-1e-7 -4.429688,1.9141727 -4.429688,4.8828127 v 5.296875 a 1.250005,1.250005 0 0 0 1.25,1.25 1.250005,1.250005 0 0 0 1.25,-1.25 v -5.296875 c 0,-1.874884 0.975325,-2.382813 1.929688,-2.382813 0.954362,0 1.927734,0.507929 1.927734,2.382813 v 1.664062 3.632813 a 1.250005,1.250005 0 0 0 1.25,1.25 1.250005,1.250005 0 0 0 1.25,-1.25 v -3.632813 -1.664062 c 0,-2.96864 -2.203529,-4.8828127 -4.427734,-4.8828127 z"
     id="path4" /><path
     style="color:#000000;fill:currentColor;stroke-linecap:round;stroke-linejoin:round;-inkscape-stroke:none"
     d="m 19.183594,1.5585937 c -2.431028,10e-8 -4.429688,1.9986597 -4.429688,4.4296875 V 29.449219 a 1.250005,1.250005 0 0 0 1.25,1.25 1.250005,1.250005 0 0 0 1.25,-1.25 V 5.9882812 c 0,-1.0799338 0.849753,-1.9296874 1.929688,-1.9296875 1.080862,0 1.927734,0.8478305 1.927734,1.9277344 v 8.4785159 5.296875 a 1.250005,1.250005 0 0 0 1.25,1.25 1.250005,1.250005 0 0 0 1.25,-1.25 V 14.464844 5.9863281 c 0,-2.4310578 -1.997762,-4.4277343 -4.427734,-4.4277344 z"
     id="path5" /></svg>
