<?xml version="1.0" encoding="UTF-8" standalone="no"?>
<!-- Created with Inkscape (http://www.inkscape.org/) -->

<svg
   width="48mm"
   height="48mm"
   viewBox="0 0 48 48"
   version="1.1"
   id="svg5"
   xml:space="preserve"
   xmlns="http://www.w3.org/2000/svg"
   xmlns:svg="http://www.w3.org/2000/svg"><defs
     id="defs2" /><path
     id="path5"
     style="color:#000000;fill:currentColor;stroke-linecap:round;stroke-linejoin:round;-inkscape-stroke:none"
     d="M 19.183842 1.5585612 C 16.752814 1.5585613 14.754138 3.5572372 14.754138 5.988265 L 14.754138 26.531197 L 13.003857 24.865149 C 11.141282 23.091187 8.1337106 23.228742 6.4394002 25.163839 C 4.9053499 26.916932 4.9495162 29.576099 6.5427531 31.27561 L 19.134749 44.705282 C 20.171168 45.810749 21.620252 46.44161 23.136572 46.44161 L 32.957161 46.44161 C 38.737317 46.44161 42.6837 41.619831 42.6837 36.715072 L 42.6837 18.550806 C 42.6837 15.582159 40.478204 13.6679 38.253996 13.6679 C 37.476838 13.6679 36.704183 13.906395 36.025191 14.337109 C 35.351783 12.414867 33.633725 11.246342 31.898311 11.246342 C 31.024666 11.246342 30.15629 11.544949 29.420943 12.0835 C 28.63004 10.514177 27.091665 9.5818441 25.541077 9.5818441 C 24.876285 9.581844 24.214536 9.756304 23.611479 10.075354 L 23.611479 5.9861979 C 23.611479 3.5551401 21.613814 1.5585613 19.183842 1.5585612 z M 19.183842 4.058667 C 20.264704 4.058667 21.111373 4.906294 21.111373 5.9861979 L 21.111373 14.46475 L 21.111373 19.761584 A 1.250005 1.250005 0 0 0 22.361426 21.011637 A 1.250005 1.250005 0 0 0 23.611479 19.761584 L 23.611479 14.46475 C 23.611479 12.589866 24.586714 12.08195 25.541077 12.08195 C 26.495439 12.08195 27.468608 12.589866 27.468608 14.46475 L 27.468608 16.128731 L 27.468608 19.761584 A 1.250005 1.250005 0 0 0 28.71866 21.011637 A 1.250005 1.250005 0 0 0 29.968713 19.761584 L 29.968713 16.128731 C 29.968713 14.253835 30.943951 13.745931 31.898311 13.745931 C 32.852672 13.745931 33.826359 14.253835 33.826359 16.128731 L 33.826359 18.550806 L 33.826359 19.761584 A 1.250005 1.250005 0 0 0 34.451127 20.844206 A 1.250005 1.250005 0 0 0 35.076412 21.011637 A 1.250005 1.250005 0 0 0 36.325948 19.761584 L 36.325948 18.550806 C 36.325948 16.67591 37.299636 16.168005 38.253996 16.168005 C 39.208356 16.168005 40.183594 16.67591 40.183594 18.550806 L 40.183594 36.715072 C 40.183594 40.286494 37.348424 43.941504 32.957161 43.941504 L 23.136572 43.941504 C 22.310076 43.941504 21.524973 43.600098 20.958927 42.996342 L 8.3669312 29.564604 C 7.6379061 28.786951 7.6185829 27.61282 8.3204224 26.810767 C 9.1003367 25.919375 10.421781 25.85906 11.279415 26.675891 L 15.142745 30.353703 A 1.250005 1.250005 0 0 0 15.270386 30.422949 A 1.250005 1.250005 0 0 0 15.557707 30.580046 A 1.250005 1.250005 0 0 0 15.85588 30.659627 A 1.250005 1.250005 0 0 0 16.003674 30.699418 A 1.250005 1.250005 0 0 0 16.180924 30.651876 A 1.250005 1.250005 0 0 0 16.483232 30.570744 A 1.250005 1.250005 0 0 0 16.757117 30.403829 A 1.250005 1.250005 0 0 0 16.910079 30.310295 A 1.250005 1.250005 0 0 0 17.079578 30.080851 A 1.250005 1.250005 0 0 0 17.089913 30.059664 A 1.250005 1.250005 0 0 0 17.252177 29.456083 A 1.250005 1.250005 0 0 0 17.253727 29.449365 L 17.253727 29.431795 A 1.250005 1.250005 0 0 0 17.253727 29.409574 L 17.253727 5.988265 C 17.253727 4.9083312 18.103907 4.0586671 19.183842 4.058667 z " /></svg>
