<?xml version="1.0" encoding="UTF-8" standalone="no"?>
<!-- Created with Inkscape (http://www.inkscape.org/) -->

<svg
   width="48mm"
   height="48mm"
   viewBox="0 0 48 48"
   version="1.1"
   id="svg5"
   xml:space="preserve"
   xmlns="http://www.w3.org/2000/svg"
   xmlns:svg="http://www.w3.org/2000/svg"><defs
     id="defs2" /><g
     id="layer1"><path
       style="fill:#000000;stroke-width:0.512545"
       d="m 22.82568,46.142314 c -0.199824,-0.19983 -0.363317,-1.358388 -0.363317,-2.574581 0,-1.997482 -0.136266,-2.240418 -1.409498,-2.512848 -4.699191,-1.005468 -8.073018,-3.065481 -7.493573,-4.575492 0.405279,-1.056144 1.500802,-0.981596 4.105531,0.279332 3.152474,1.526079 7.078139,1.806703 10.669418,0.76269 4.184957,-1.2166 8.060158,-5.091802 9.276759,-9.276758 1.096854,-3.77305 0.737904,-7.731719 -1.005816,-11.092659 -1.385063,-2.669657 -1.294781,-4.005016 0.270802,-4.005016 1.479878,0 3.245566,3.234974 4.250976,7.788338 0.272212,1.232785 0.566856,1.398327 2.736888,1.537629 2.210648,0.141947 2.43185,0.272663 2.43185,1.437468 0,1.16482 -0.221202,1.295565 -2.43185,1.437468 -2.170032,0.139331 -2.464676,0.304844 -2.736888,1.537644 -1.072664,4.857902 -3.400502,8.492419 -7.143811,11.153825 -2.298809,1.634391 -3.863171,2.303618 -7.008052,2.998023 -1.232786,0.272212 -1.398328,0.566872 -1.53763,2.736897 -0.127999,1.995128 -0.343984,2.458743 -1.202291,2.581599 -0.5754,0.08238 -1.209673,-0.01453 -1.409498,-0.213559 z M 8.0973079,30.957916 C 7.5534822,29.759839 7.0999358,28.318304 7.0894285,27.754512 7.057407,26.036464 6.4003596,25.525805 4.0023315,25.355236 1.9363824,25.208292 1.7043004,25.062379 1.7043004,23.910417 c 0,-1.164805 0.2212014,-1.29555 2.4318431,-1.437468 C 6.3093293,22.333472 6.5993174,22.169907 6.8625507,20.93532 8.4714383,13.389511 13.47909,8.3818603 21.024895,6.7729815 22.25948,6.5097482 22.423026,6.2197528 22.562529,4.0465742 c 0.141903,-2.2106479 0.27266,-2.4318493 1.437468,-2.4318493 1.16481,0 1.295569,0.2212014 1.437472,2.4318493 0.139477,2.1731786 0.303042,2.463174 1.53763,2.7264073 4.811105,1.0257934 7.06948,2.6996161 5.610699,4.1584115 -0.561888,0.561874 -1.176007,0.502524 -3.593851,-0.347282 -5.789575,-2.034864 -10.783488,-0.9382426 -15.019999,3.298262 -4.2132074,4.2132 -5.3314944,9.316364 -3.319141,15.146477 0.69091,2.001681 0.815699,2.99862 0.433054,3.459678 -0.983891,1.185508 -1.9894172,0.670534 -2.9885531,-1.530612 z M 20.617202,27.293222 c -1.91768,-1.917689 -2.202488,-3.569573 -1.012273,-5.871187 0.809942,-1.566265 2.729267,-2.637054 4.726712,-2.637054 1.942049,0 4.793811,3.049034 4.793811,5.125436 0,1.181877 -0.486919,2.127064 -1.74266,3.382805 -2.364581,2.364581 -4.401007,2.364581 -6.76559,0 z m 4.900001,-2.076823 c 0.79679,-0.96008 0.518491,-2.325208 -0.620251,-3.042322 -1.775916,-1.118386 -3.775706,1.401756 -2.414154,3.042322 0.791682,0.953919 2.242718,0.953919 3.034405,0 z"
       id="path248" /></g></svg>
