<?xml version="1.0" encoding="UTF-8" standalone="no"?>
<!-- Created with Inkscape (http://www.inkscape.org/) -->

<svg
   width="64"
   height="64"
   viewBox="0 0 16.933333 16.933333"
   version="1.1"
   id="svg1"
   xmlns="http://www.w3.org/2000/svg"
   xmlns:svg="http://www.w3.org/2000/svg">
  <defs
     id="defs1" />
  <g
     id="layer1">
    <g
       id="g3"
       transform="matrix(0.08137348,0,0,0.08137348,4.0879847e-5,1.9310666e-7)"
       style="fill:#000000;fill-opacity:1">
	<circle
   cx="113.477"
   cy="106.62"
   r="11.55"
   id="circle1"
   style="fill:#000000;fill-opacity:1" />

	<path
   d="m 101.508,132.035 c -5.096,-0.313 -9.479,3.564 -9.791,8.658 -0.312,5.096 3.567,9.479 8.663,9.791 5.092,0.311 9.476,-3.566 9.787,-8.662 0.312,-5.093 -3.566,-9.476 -8.659,-9.787 z"
   id="path1"
   style="fill:#000000;fill-opacity:1" />

	<path
   d="m 102.471,80.172 c 7.64,0.467 14.214,-5.348 14.682,-12.99 0.467,-7.643 -5.35,-14.215 -12.989,-14.682 -7.643,-0.469 -14.213,5.348 -14.68,12.988 -0.468,7.645 5.346,14.217 12.987,14.684 z"
   id="path2"
   style="fill:#000000;fill-opacity:1" />

	<path
   d="m 182.604,74.911 c 0,-4.142 -3.357,-7.5 -7.5,-7.5 h -17.843 c -2.237,-6.52 -5.203,-12.823 -8.926,-18.785 -0.757,-1.212 -1.569,-2.373 -2.407,-3.509 l 11.68,-11.68 c 2.929,-2.929 2.929,-7.678 -0.001,-10.606 -2.928,-2.93 -7.677,-2.929 -10.606,0 L 135.429,34.404 C 128.907,29.389 121.307,25.921 113.132,24.321 V 7.5 c 0,-4.142 -3.358,-7.5 -7.5,-7.5 -4.143,0 -7.5,3.358 -7.5,7.5 v 16.001 c -8.476,0.715 -16.681,3.431 -23.961,7.976 -0.299,0.186 -0.585,0.387 -0.879,0.579 L 61.353,20.118 c -2.93,-2.929 -7.678,-2.929 -10.607,0 -2.929,2.929 -2.929,7.678 0,10.606 l 11.196,11.197 c -5.67,6.544 -9.699,14.412 -11.706,23.088 -0.185,0.799 -0.346,1.601 -0.494,2.402 H 32.989 c -4.143,0 -7.5,3.358 -7.5,7.5 0,4.142 3.357,7.5 7.5,7.5 h 16.108 c 0.795,8.155 3.457,16.08 7.925,23.232 2.802,4.486 3.826,9.811 3.04,14.922 H 42.396 c -4.143,0 -7.5,3.358 -7.5,7.5 0,4.142 3.357,7.5 7.5,7.5 h 11.959 c -0.93,2.736 -1.701,5.759 -2.098,9.114 -0.939,7.912 0.461,15.481 3.967,22.115 l -12.229,12.23 c -2.929,2.929 -2.929,7.678 0.001,10.606 1.464,1.465 3.384,2.197 5.303,2.197 1.919,0 3.839,-0.732 5.304,-2.197 l 11.178,-11.178 c 7.114,5.872 16.047,9.075 25.523,9.075 2.23,0 4.474,-0.2 6.721,-0.554 v 13.621 c 0,4.142 3.358,7.5 7.5,7.5 4.143,0 7.5,-3.358 7.5,-7.5 V 182.04 c 7.068,-3.538 13.971,-8.731 20.423,-15.445 l 10.892,10.892 c 1.465,1.465 3.384,2.197 5.304,2.197 1.919,0 3.839,-0.732 5.303,-2.197 2.93,-2.929 2.93,-7.677 0.001,-10.606 l -11.896,-11.896 c 4.335,-6.088 8.042,-12.638 10.994,-19.42 h 18.303 c 4.143,0 7.5,-3.358 7.5,-7.5 0,-4.142 -3.357,-7.5 -7.5,-7.5 H 159.23 c 0.258,-1 0.499,-2.001 0.722,-3.003 2.617,-11.764 2.939,-23.658 1.08,-35.151 h 14.074 c 4.141,0 7.498,-3.358 7.498,-7.5 z m -91.301,97.615 v 0 c -6.725,0 -12.99,-2.537 -17.645,-7.145 -5.052,-4.999 -7.362,-11.724 -6.506,-18.938 0.522,-4.41 2.15,-8.304 3.675,-11.535 l 0.14,-0.298 0.161,-0.306 c 0.534,-1.022 0.998,-2.069 1.43,-3.126 0.094,-0.206 0.178,-0.417 0.254,-0.632 4.15,-10.741 3.09,-22.991 -3.067,-32.85 -5.494,-8.794 -7.232,-19.202 -4.896,-29.307 2.338,-10.106 8.47,-18.696 17.266,-24.189 6.18,-3.858 13.277,-5.897 20.527,-5.897 13.502,0 25.827,6.829 32.971,18.268 10.716,17.161 14.159,37.665 9.694,57.734 -3.098,13.926 -10.198,27.772 -19.994,38.988 -10.833,12.403 -22.911,19.233 -34.01,19.233 z"
   id="path3"
   style="fill:#000000;fill-opacity:1" />

</g>
  </g>
</svg>
