<?xml version="1.0" encoding="UTF-8" standalone="no"?>
<!-- Created with Inkscape (http://www.inkscape.org/) -->

<svg
   width="64"
   height="64"
   viewBox="0 0 16.933333 16.933333"
   version="1.1"
   id="svg1"
   inkscape:version="1.4 (e7c3feb1, 2024-10-09)"
   sodipodi:docname="diatom1.svg"
   inkscape:export-filename="circle.png"
   inkscape:export-xdpi="96"
   inkscape:export-ydpi="96"
   xml:space="preserve"
   xmlns:inkscape="http://www.inkscape.org/namespaces/inkscape"
   xmlns:sodipodi="http://sodipodi.sourceforge.net/DTD/sodipodi-0.dtd"
   xmlns="http://www.w3.org/2000/svg"
   xmlns:svg="http://www.w3.org/2000/svg"><sodipodi:namedview
     id="namedview1"
     pagecolor="#ffffff"
     bordercolor="#000000"
     borderopacity="0.25"
     inkscape:showpageshadow="2"
     inkscape:pageopacity="0.0"
     inkscape:pagecheckerboard="0"
     inkscape:deskcolor="#d1d1d1"
     inkscape:document-units="mm"
     showguides="false"
     showgrid="false"
     inkscape:zoom="6.0609268"
     inkscape:cx="30.440889"
     inkscape:cy="49.579876"
     inkscape:window-width="1800"
     inkscape:window-height="1098"
     inkscape:window-x="0"
     inkscape:window-y="71"
     inkscape:window-maximized="0"
     inkscape:current-layer="layer1"><inkscape:grid
       id="grid1"
       units="mm"
       originx="-1.1920929e-07"
       originy="-1.1920929e-07"
       spacingx="0.26458333"
       spacingy="0.26458333"
       empcolor="#0099e5"
       empopacity="0.30196078"
       color="#0099e5"
       opacity="0.14901961"
       empspacing="5"
       enabled="true"
       visible="false" /></sodipodi:namedview><defs
     id="defs1" /><g
     inkscape:label="Layer 1"
     inkscape:groupmode="layer"
     id="layer1"><path
       style="fill:#000000"
       d="m -42.390566,89.828327 c -11.32191,-0.86157 -15.23575,-2.4235 -16.43832,-6.56021 -1.08975,-3.74862 0.0498,-7.78553 4.86989,-17.25187 8.86279,-17.4059 14.73648,-26.40192 18.48834,-28.31631 1.87866,-0.95859 4.71129,-0.92407 6.63545,0.0809 4.49085,2.34543 13.24577,15.15906 20.46695,29.95523 3.55174,7.27752 4.03532,8.75905 4.05897,12.43542 l 0.0187,2.91042 -0.71061,1.34673 c -1.62959,3.08836 -3.85002,4.05017 -11.59251,5.02146 -3.84911,0.48287 -21.0985,0.7358 -25.79688,0.37826 z m 16.41636,-2.12273 c 16.79455,-0.82113 20.16143,-2.15597 19.60968,-7.77448 -0.57502,-5.85552 -8.41953,-21.08215 -17.46002,-33.89091 -5.75692,-8.15652 -9.45319,-9.08542 -13.84053,-3.47821 -3.62664,4.635 -12.57896,20.31487 -16.11018,28.21675 -4.75716,10.64521 -4.00664,14.20111 3.3149,15.70563 5.88505,1.20934 15.21355,1.67459 24.48615,1.22122 z m -6.48517,-7.91362 c -0.29577,-0.55265 -0.40421,-29.79704 -0.1133,-30.55513 0.18928,-0.49324 1.18496,-0.55463 1.63857,-0.10101 0.33641,0.33641 0.4872,29.88864 0.1569,30.7494 -0.22495,0.58622 -1.35197,0.52374 -1.68217,-0.0933 z"
       id="path2"
       sodipodi:nodetypes="sssscsscsssssssssssssssss" /><path
       style="fill:#000000;stroke:#0b0b0b;stroke-width:0.33003;stroke-linecap:round;stroke-linejoin:round;stroke-dasharray:none;stroke-opacity:1"
       d="M 0.62203049,15.607328 C -0.02207546,14.429443 0.1095347,12.314499 0.972434,9.9764425 2.558831,5.6780841 5.8496643,2.4954699 10.172449,1.0796318 c 3.419728,-1.12040173 5.382642,-0.89797816 6.141265,0.6958849 1.179625,2.4783921 -0.283173,6.8850641 -3.466512,10.4428423 -2.801669,3.131217 -6.2985163,4.883678 -9.4960461,4.758991 -1.419831,-0.05537 -2.2333925,-0.463729 -2.72881293,-1.3697 z m 1.55405301,0.490437 c 0.5434062,0.227576 1.8073154,0.246746 2.9129943,0.04417 C 8.2844144,15.556533 11.215608,13.513677 13.58178,10.223072 15.367388,7.7398532 16.43622,4.0868587 15.86204,2.4297242 15.331404,0.89825751 13.506046,0.65282221 10.416405,1.6975042 8.5585892,2.3256933 7.2859909,3.0258234 5.7540401,4.2625863 3.0621437,6.4357743 1.0102388,10.410452 0.9381963,13.591211 0.9067093,14.981343 1.270832,15.718644 2.1760835,16.097765 Z M 2.3397228,14.416259 C 2.3687078,14.327519 2.5338893,14.162245 2.729999,14.025729 4.2586273,12.962082 5.4810242,11.735482 6.309865,10.433553 6.8675597,9.5575371 8.1677961,8.3290672 9.3121709,7.5969542 11.14223,6.4261765 12.374195,5.1323674 13.05074,3.6707177 13.392559,2.9322261 13.515596,2.8264103 13.750426,3.0689607 L 13.920311,3.2444285 13.740413,3.736836 C 13.174569,5.2856297 11.681795,6.8698761 9.4042388,8.338717 8.4404553,8.960278 7.4170776,9.9486946 6.9041029,10.753382 6.2784275,11.734955 5.5717849,12.562711 4.7485477,13.278373 3.8714885,14.040816 2.8654594,14.758465 2.6505837,14.774932 2.4424409,14.790939 2.2789056,14.602207 2.3396424,14.416189 Z m 3.2814218,-0.116917 c -0.010058,-0.584395 0.080741,-0.773461 0.3569504,-0.743278 0.2144057,0.02344 0.3012915,0.319207 0.2626826,0.895015 -0.060668,0.906103 -0.6037178,0.773119 -0.619633,-0.15173 z M 2.4486765,11.155183 c 0.155004,-0.249554 0.2522386,-0.249412 0.9292861,0.0013 0.6936814,0.256892 0.82402,0.361253 0.7478659,0.598837 -0.086095,0.268648 -0.2599658,0.288167 -0.8759355,0.09831 C 2.5540403,11.639091 2.2907121,11.409561 2.4486669,11.15517 Z M 3.500001,8.7513644 C 3.502111,8.6710084 3.561528,8.5496015 3.6318994,8.4814701 3.8140139,8.3051509 3.9306996,8.3399291 4.740881,8.8121653 l 0.7219635,0.4208069 -0.00391,0.2420127 C 5.4521415,9.8949251 5.1563671,9.9170763 4.4991248,9.5468567 3.7322826,9.1149044 3.4953743,8.9262858 3.5000447,8.7514094 Z M 7.7097186,13.043851 C 7.4997057,12.631302 7.6001537,12.313638 7.9388911,12.319118 l 0.185515,0.0031 0.3210935,0.538465 c 0.3716811,0.623298 0.3876361,0.811214 0.078213,0.92126 -0.2486939,0.08841 -0.5172262,-0.155046 -0.8139954,-0.738022 z M 5.2577593,6.5270754 C 5.2659843,6.01876 5.6614534,6.1188668 6.4653568,6.8336338 7.0947176,7.393159 7.1747739,7.5556091 6.9353256,7.7874371 6.7192552,7.9966312 6.53741,7.9138774 5.8792417,7.3068557 L 5.2544751,6.7306284 Z m 4.2666998,4.3965516 c 0.00773,-0.478229 0.3753526,-0.486137 0.8271419,-0.0178 0.710596,0.736651 0.833157,1.128203 0.393641,1.257713 -0.21679,0.06388 -1.2253027,-0.960441 -1.2207935,-1.239905 z M 7.7723519,5.5541179 C 7.3169913,4.6093705 7.2951417,4.2437368 7.692223,4.2133009 7.9153813,4.1961943 7.9916661,4.3024844 8.4020502,5.202353 8.789328,6.0515526 8.789525,6.3357375 8.4028612,6.3653793 8.1966989,6.381181 8.1290152,6.294093 7.7723538,5.5541162 Z m 3.3281351,3.4898942 c -0.04319,-0.3112086 0.332926,-0.4332144 0.802411,-0.2603257 0.652178,0.2401753 0.965696,0.4291996 1.002547,0.6044445 0.09335,0.4439437 -0.403376,0.5168312 -1.1735,0.1721943 C 11.131999,9.2918517 11.135237,9.294497 11.10049,9.0440091 Z M 10.131876,4.294195 9.9293017,3.46581 10.097478,3.3029868 c 0.327919,-0.3174842 0.458194,-0.1631665 0.654683,0.775513 0.175142,0.8367143 0.141018,1.1636722 -0.127581,1.2225125 -0.183973,0.040299 -0.289256,-0.17485 -0.492706,-1.0068174 z m 3.005537,2.7158918 c 0.0254,-0.2323847 0.351309,-0.3086683 0.898261,-0.2102299 0.348575,0.062733 0.419847,0.1021526 0.430259,0.2379779 0.02001,0.2610987 -0.131785,0.3350262 -0.670048,0.3263243 -0.541592,-0.00876 -0.687621,-0.087283 -0.658469,-0.354073 z"
       id="path2-7"
       sodipodi:nodetypes="csssssccssssssssccsssscsssssccsssssssssssscssssscssssssscscssccssssssssssscsssssssss" /><path
       style="fill:#000000"
       d="m -23.267246,162.84097 c -10.29027,-1.27236 -18.87511,-7.85381 -22.49773,-17.24758 -1.52737,-3.96059 -1.70121,-4.9784 -1.70664,-9.99171 l -0.005,-4.63021 0.60352,-2.11667 c 4.13746,-14.51107 16.78131,-22.83763 31.34533,-20.64235 16.35288997,2.46494 26.64673,18.44219 22.38637,34.74629 -3.34241,12.79118 -16.61765,21.55248 -30.12584,19.88223 z m 9.82103,-2.99065 c 8.68977,-2.22844 14.88109,-8.16074 17.85174,-17.10489 l 0.74696,-2.24896 0.0115,-4.7625 0.0115,-4.7625 -0.60503,-2.0889 c -2.86595,-9.89482 -10.63121,-16.75379 -20.52554,-18.12996 -14.03391,-1.95194 -26.23002,6.4295 -29.03612,19.95427 -2.2759,10.96933 3.98207,22.95324 14.43524,27.64326 5.2839,2.37073 11.56691,2.92162 17.10978,1.50018 z m -9.70604,-17.0759 c -3.28996,-1.49429 -5.38283,-5.51363 -4.60102,-8.83622 0.85857,-3.64881 3.06284,-5.91746 6.35642,-6.54208 4.84967,-0.91972 9.32843,2.90982 9.34521,7.99058 l 0.006,1.76939 -0.91437,1.79075 c -1.06315,2.08213 -2.48955,3.31341 -4.54594,3.92409 -1.85556,0.55105 -4.31291,0.50904 -5.64614,-0.0965 z m 5.58449,-2.11382 c 3.71277,-1.68648 4.45816,-7.02355 1.36074,-9.74311 -4.28074,-3.75854 -10.72691,0.70619 -9.16098,6.34506 0.85138,3.06582 4.77179,4.77368 7.80024,3.39805 z"
       id="path2-9"
       sodipodi:nodetypes="ssscssssssscccsssssssssccssssssss" /><path
       style="fill:#000000"
       d="m -110.18623,112.30364 c -6.33968,-1.65058 -13.98674,-13.400583 -15.84797,-24.351033 -0.48865,-2.87491 -0.55703,-8.42432 -0.13818,-11.21363 1.64527,-10.95669 8.14737,-22.79338 14.13407,-25.73024 2.2335,-1.09568 4.67667,-1.09102 6.6995,0.0128 6.935724,3.78458 13.206504,15.93716 14.286614,27.68698 0.75149,8.17503 -1.89653,17.67264 -7.15109,25.648703 -3.873744,5.88006 -8.397474,8.87996 -11.982944,7.94645 z m 4.06325,-2.98505 c 4.5109,-2.18368 10.581304,-12.638583 12.340214,-21.253213 2.20155,-10.78255 -2.04924,-25.41472 -9.473674,-32.61047 -2.2211,-2.15268 -3.716,-2.96162 -5.48878,-2.97017 -5.50624,-0.0266 -13.05004,11.88165 -15.09766,23.83226 -1.78514,10.41875 1.91563,22.50165 9.24704,30.191293 3.13724,3.29052 5.7148,4.14546 8.47286,2.8103 z m -0.99658,-6.67225 c -0.26047,-0.31385 -0.23524,-0.93992 0.12461,-3.092003 0.44371,-2.65354 0.41676,-5.509 -0.0638,-6.76407 l -0.21703,-0.56677 -4.02334,1.60095 c -4.28148,1.70367 -4.8402,1.74134 -4.8402,0.32635 0,-0.82617 0.18853,-0.93652 4.29948,-2.51657 2.00091,-0.76905 3.63802,-1.50623 3.63802,-1.63818 0,-0.13195 -0.48716,-0.95729 -1.08259,-1.83409 -3.40697,-5.01699 -3.68316,-9.85598 -1.2659,-22.17928 0.88125,-4.49268 1.07539,-5.03709 1.79624,-5.03709 1.26072,0 1.31173,1.21491 0.26286,6.26129 -0.62081,2.9869 -1.29811,8.65022 -1.29811,10.8543 v 1.64071 l 1.52135,-0.67411 c 4.60215,-2.03921 6.78211,-2.7751 7.3944,-2.49612 0.72357,0.32967 0.79203,1.10827 0.14623,1.66293 -0.53019,0.45535 -7.80273,3.3885 -8.40158,3.3885 -0.828,0 0.0976,2.99028 1.53761,4.9675 1.8392,2.52531 2.68044,4.64701 3.10376,7.82807 0.64854,4.87351 -1.0419,10.183603 -2.63197,8.267683 z"
       id="path2-2"
       sodipodi:nodetypes="ssssssssssssssssssscssssssssscssssssss" /></g></svg>
