<?xml version="1.0" encoding="UTF-8" standalone="no"?>
<!-- Created with Inkscape (http://www.inkscape.org/) -->

<svg
   width="64"
   height="64"
   viewBox="0 0 16.933333 16.933333"
   version="1.1"
   id="svg1"
   inkscape:version="1.4 (e7c3feb1, 2024-10-09)"
   sodipodi:docname="diatom3.svg"
   inkscape:export-filename="diatom3.png"
   inkscape:export-xdpi="96"
   inkscape:export-ydpi="96"
   xml:space="preserve"
   xmlns:inkscape="http://www.inkscape.org/namespaces/inkscape"
   xmlns:sodipodi="http://sodipodi.sourceforge.net/DTD/sodipodi-0.dtd"
   xmlns="http://www.w3.org/2000/svg"
   xmlns:svg="http://www.w3.org/2000/svg"><sodipodi:namedview
     id="namedview1"
     pagecolor="#ffffff"
     bordercolor="#000000"
     borderopacity="0.25"
     inkscape:showpageshadow="2"
     inkscape:pageopacity="0.0"
     inkscape:pagecheckerboard="0"
     inkscape:deskcolor="#d1d1d1"
     inkscape:document-units="mm"
     showguides="false"
     showgrid="true"
     inkscape:zoom="3.0403683"
     inkscape:cx="-12.334032"
     inkscape:cy="-54.105287"
     inkscape:window-width="1800"
     inkscape:window-height="1098"
     inkscape:window-x="0"
     inkscape:window-y="71"
     inkscape:window-maximized="0"
     inkscape:current-layer="layer1"><inkscape:grid
       id="grid1"
       units="mm"
       originx="-1.1920929e-07"
       originy="-1.1920929e-07"
       spacingx="0.26458333"
       spacingy="0.26458333"
       empcolor="#0099e5"
       empopacity="0.30196078"
       color="#0099e5"
       opacity="0.14901961"
       empspacing="5"
       enabled="true"
       visible="true" /></sodipodi:namedview><defs
     id="defs1" /><g
     inkscape:label="Layer 1"
     inkscape:groupmode="layer"
     id="layer1"><path
       style="fill:#000000"
       d="m -23.267246,162.84097 c -10.29027,-1.27236 -18.87511,-7.85381 -22.49773,-17.24758 -1.52737,-3.96059 -1.70121,-4.9784 -1.70664,-9.99171 l -0.005,-4.63021 0.60352,-2.11667 c 4.13746,-14.51107 16.78131,-22.83763 31.34533,-20.64235 16.35288997,2.46494 26.64673,18.44219 22.38637,34.74629 -3.34241,12.79118 -16.61765,21.55248 -30.12584,19.88223 z m 9.82103,-2.99065 c 8.68977,-2.22844 14.88109,-8.16074 17.85174,-17.10489 l 0.74696,-2.24896 0.0115,-4.7625 0.0115,-4.7625 -0.60503,-2.0889 c -2.86595,-9.89482 -10.63121,-16.75379 -20.52554,-18.12996 -14.03391,-1.95194 -26.23002,6.4295 -29.03612,19.95427 -2.2759,10.96933 3.98207,22.95324 14.43524,27.64326 5.2839,2.37073 11.56691,2.92162 17.10978,1.50018 z m -9.70604,-17.0759 c -3.28996,-1.49429 -5.38283,-5.51363 -4.60102,-8.83622 0.85857,-3.64881 3.06284,-5.91746 6.35642,-6.54208 4.84967,-0.91972 9.32843,2.90982 9.34521,7.99058 l 0.006,1.76939 -0.91437,1.79075 c -1.06315,2.08213 -2.48955,3.31341 -4.54594,3.92409 -1.85556,0.55105 -4.31291,0.50904 -5.64614,-0.0965 z m 5.58449,-2.11382 c 3.71277,-1.68648 4.45816,-7.02355 1.36074,-9.74311 -4.28074,-3.75854 -10.72691,0.70619 -9.16098,6.34506 0.85138,3.06582 4.77179,4.77368 7.80024,3.39805 z"
       id="path2-9"
       sodipodi:nodetypes="ssscssssssscccsssssssssccssssssss" /><path
       style="fill:#000000;stroke:#000000;stroke-width:0.486167;stroke-linecap:round;stroke-linejoin:round;stroke-dasharray:none;stroke-opacity:1"
       d="M 0.9668024,15.596105 C -0.17876764,13.739181 0.68644434,9.1508426 2.7598986,6.0871074 3.3042549,5.2827558 4.5655583,3.9315675 5.3085696,3.3567463 8.227284,1.0988821 12.517401,-0.25245838 14.634293,0.41924001 c 0.789769,0.25059884 1.376635,0.81426269 1.609253,1.54567269 0.797647,2.5076975 -0.491457,6.876025 -2.936939,9.9522753 -1.701474,2.140316 -4.5255395,3.816176 -7.6265316,4.52571 -2.2860916,0.523083 -4.0654378,0.203407 -4.713323,-0.846794 z m 1.6651122,0.217223 C 4.2202464,16.326477 8.0883198,15.208261 10.495123,13.540173 13.507605,11.452296 15.853745,6.9523739 15.723912,3.5112586 15.685073,2.4818156 15.51159,1.9429454 15.086938,1.5326958 13.767981,0.25850691 9.2107347,1.3871891 5.9663385,3.7915892 3.1378243,5.8877941 1.2462979,9.6476034 1.2400279,13.186153 c -0.00268,1.514208 0.4207523,2.313432 1.3918867,2.627175 z M 3.92839,13.978214 c 0.0096,-0.135485 0.1597696,-0.280387 0.7419417,-0.71537 0.7177499,-0.536404 1.3687436,-1.22976 1.5420337,-1.642482 L 6.2906438,11.434005 4.9538265,10.892892 C 3.5312297,10.317058 3.3880997,10.197476 3.7139051,9.8569619 3.9041312,9.6581481 3.974945,9.6750366 5.3280085,10.241325 c 0.6585799,0.275637 1.2222856,0.475188 1.252667,0.443435 0.030378,-0.03175 0.1031849,-0.342537 0.161779,-0.6906347 0.3352846,-1.9917834 1.3830049,-3.2198599 4.8021675,-5.6288354 1.246516,-0.8782368 1.418582,-0.9645495 1.592054,-0.7985713 0.303386,0.2902819 0.03593,0.594392 -1.378384,1.5673082 -0.837134,0.5758426 -2.3041131,1.7827487 -2.8116045,2.3131519 l -0.3777754,0.3948309 0.52132,0.1880691 C 10.66726,8.599006 11.361291,8.9238483 11.444407,9.1319699 11.542622,9.3778981 11.379826,9.5810374 11.096653,9.5657669 10.86422,9.553269 8.4387512,8.5846116 8.2946386,8.4467243 8.0953838,8.2560771 7.6295785,9.1887656 7.5208928,9.9961783 7.3820341,11.027362 7.0959522,11.731636 6.4653756,12.594614 5.4993152,13.916734 3.869857,14.805359 3.9283615,13.978187 Z"
       id="path2-2"
       sodipodi:nodetypes="ssssssssssssssssssscssssssssscssssssss" /></g></svg>
