<?xml version="1.0" encoding="UTF-8" standalone="no"?>
<!-- Created with Inkscape (http://www.inkscape.org/) -->

<svg
   width="64"
   height="64"
   viewBox="0 0 16.933333 16.933333"
   version="1.1"
   id="svg1"
   inkscape:version="1.4 (e7c3feb1, 2024-10-09)"
   sodipodi:docname="diatom2.svg"
   inkscape:export-filename="diatom2.png"
   inkscape:export-xdpi="96"
   inkscape:export-ydpi="96"
   xml:space="preserve"
   xmlns:inkscape="http://www.inkscape.org/namespaces/inkscape"
   xmlns:sodipodi="http://sodipodi.sourceforge.net/DTD/sodipodi-0.dtd"
   xmlns="http://www.w3.org/2000/svg"
   xmlns:svg="http://www.w3.org/2000/svg"><sodipodi:namedview
     id="namedview1"
     pagecolor="#ffffff"
     bordercolor="#000000"
     borderopacity="0.25"
     inkscape:showpageshadow="2"
     inkscape:pageopacity="0.0"
     inkscape:pagecheckerboard="0"
     inkscape:deskcolor="#d1d1d1"
     inkscape:document-units="mm"
     showguides="false"
     showgrid="true"
     inkscape:zoom="3.0314738"
     inkscape:cx="-31.502828"
     inkscape:cy="79.004475"
     inkscape:window-width="1800"
     inkscape:window-height="1098"
     inkscape:window-x="0"
     inkscape:window-y="71"
     inkscape:window-maximized="0"
     inkscape:current-layer="layer1"><inkscape:grid
       id="grid1"
       units="mm"
       originx="-1.1920929e-07"
       originy="-1.1920929e-07"
       spacingx="0.26458333"
       spacingy="0.26458333"
       empcolor="#0099e5"
       empopacity="0.30196078"
       color="#0099e5"
       opacity="0.14901961"
       empspacing="5"
       enabled="true"
       visible="true" /></sodipodi:namedview><defs
     id="defs1" /><g
     inkscape:label="Layer 1"
     inkscape:groupmode="layer"
     id="layer1"><path
       style="fill:#000000;stroke:#000000;stroke-width:0.512819;stroke-dasharray:none;stroke-opacity:1"
       d="M 5.1706721,16.621691 C 1.6646525,16.354892 0.45266635,15.871214 0.08027033,14.590212 -0.25718841,13.429389 0.09568883,12.179292 1.588314,9.2478817 4.3328254,3.8578531 6.1517113,1.0720849 7.3135374,0.47926244 7.8952965,0.182419 8.7724677,0.19310826 9.3683157,0.50431387 10.758983,1.2306154 13.47009,5.1985697 15.70625,9.7804518 c 1.099855,2.2536062 1.249604,2.7123862 1.256927,3.8508362 l 0.0058,0.90126 -0.220053,0.417038 c -0.504629,0.956362 -1.192223,1.254202 -3.589815,1.554978 -1.191941,0.14953 -6.5335037,0.227853 -7.9884354,0.117136 z M 10.254273,15.964352 C 15.454986,15.710076 16.497597,15.29672 16.326738,13.556854 16.148673,11.743594 13.719489,7.0284133 10.919951,3.0619668 9.1372243,0.53616359 7.9926124,0.24851407 6.6339983,1.9848804 5.510949,3.4201858 2.7387134,8.2757206 1.6452122,10.72267 c -1.47313444,3.296467 -1.24072309,4.397611 1.0265135,4.863511 1.8224047,0.374492 4.711131,0.518565 7.5825473,0.378171 z M 8.2460311,13.513767 c -0.09159,-0.171138 -0.1251709,-9.2271516 -0.035082,-9.4619073 0.058612,-0.15274 0.3669428,-0.17175 0.5074111,-0.031283 0.1041742,0.1041751 0.1508697,9.2555183 0.048581,9.5220663 -0.069659,0.181534 -0.4186602,0.162185 -0.5209117,-0.02889 z"
       id="path2"
       sodipodi:nodetypes="sssscsscsssssssssssssssss" /><path
       style="fill:#000000"
       d="m -23.267246,162.84097 c -10.29027,-1.27236 -18.87511,-7.85381 -22.49773,-17.24758 -1.52737,-3.96059 -1.70121,-4.9784 -1.70664,-9.99171 l -0.005,-4.63021 0.60352,-2.11667 c 4.13746,-14.51107 16.78131,-22.83763 31.34533,-20.64235 16.35288997,2.46494 26.64673,18.44219 22.38637,34.74629 -3.34241,12.79118 -16.61765,21.55248 -30.12584,19.88223 z m 9.82103,-2.99065 c 8.68977,-2.22844 14.88109,-8.16074 17.85174,-17.10489 l 0.74696,-2.24896 0.0115,-4.7625 0.0115,-4.7625 -0.60503,-2.0889 c -2.86595,-9.89482 -10.63121,-16.75379 -20.52554,-18.12996 -14.03391,-1.95194 -26.23002,6.4295 -29.03612,19.95427 -2.2759,10.96933 3.98207,22.95324 14.43524,27.64326 5.2839,2.37073 11.56691,2.92162 17.10978,1.50018 z m -9.70604,-17.0759 c -3.28996,-1.49429 -5.38283,-5.51363 -4.60102,-8.83622 0.85857,-3.64881 3.06284,-5.91746 6.35642,-6.54208 4.84967,-0.91972 9.32843,2.90982 9.34521,7.99058 l 0.006,1.76939 -0.91437,1.79075 c -1.06315,2.08213 -2.48955,3.31341 -4.54594,3.92409 -1.85556,0.55105 -4.31291,0.50904 -5.64614,-0.0965 z m 5.58449,-2.11382 c 3.71277,-1.68648 4.45816,-7.02355 1.36074,-9.74311 -4.28074,-3.75854 -10.72691,0.70619 -9.16098,6.34506 0.85138,3.06582 4.77179,4.77368 7.80024,3.39805 z"
       id="path2-9"
       sodipodi:nodetypes="ssscssssssscccsssssssssccssssssss" /><path
       style="fill:#000000"
       d="m -110.18623,112.30364 c -6.33968,-1.65058 -13.98674,-13.400583 -15.84797,-24.351033 -0.48865,-2.87491 -0.55703,-8.42432 -0.13818,-11.21363 1.64527,-10.95669 8.14737,-22.79338 14.13407,-25.73024 2.2335,-1.09568 4.67667,-1.09102 6.6995,0.0128 6.935724,3.78458 13.206504,15.93716 14.286614,27.68698 0.75149,8.17503 -1.89653,17.67264 -7.15109,25.648703 -3.873744,5.88006 -8.397474,8.87996 -11.982944,7.94645 z m 4.06325,-2.98505 c 4.5109,-2.18368 10.581304,-12.638583 12.340214,-21.253213 2.20155,-10.78255 -2.04924,-25.41472 -9.473674,-32.61047 -2.2211,-2.15268 -3.716,-2.96162 -5.48878,-2.97017 -5.50624,-0.0266 -13.05004,11.88165 -15.09766,23.83226 -1.78514,10.41875 1.91563,22.50165 9.24704,30.191293 3.13724,3.29052 5.7148,4.14546 8.47286,2.8103 z m -0.99658,-6.67225 c -0.26047,-0.31385 -0.23524,-0.93992 0.12461,-3.092003 0.44371,-2.65354 0.41676,-5.509 -0.0638,-6.76407 l -0.21703,-0.56677 -4.02334,1.60095 c -4.28148,1.70367 -4.8402,1.74134 -4.8402,0.32635 0,-0.82617 0.18853,-0.93652 4.29948,-2.51657 2.00091,-0.76905 3.63802,-1.50623 3.63802,-1.63818 0,-0.13195 -0.48716,-0.95729 -1.08259,-1.83409 -3.40697,-5.01699 -3.68316,-9.85598 -1.2659,-22.17928 0.88125,-4.49268 1.07539,-5.03709 1.79624,-5.03709 1.26072,0 1.31173,1.21491 0.26286,6.26129 -0.62081,2.9869 -1.29811,8.65022 -1.29811,10.8543 v 1.64071 l 1.52135,-0.67411 c 4.60215,-2.03921 6.78211,-2.7751 7.3944,-2.49612 0.72357,0.32967 0.79203,1.10827 0.14623,1.66293 -0.53019,0.45535 -7.80273,3.3885 -8.40158,3.3885 -0.828,0 0.0976,2.99028 1.53761,4.9675 1.8392,2.52531 2.68044,4.64701 3.10376,7.82807 0.64854,4.87351 -1.0419,10.183603 -2.63197,8.267683 z"
       id="path2-2"
       sodipodi:nodetypes="ssssssssssssssssssscssssssssscssssssss" /></g></svg>
